<?xml version="1.0" standalone="no"?>
<!DOCTYPE svg PUBLIC "-//W3C//DTD SVG 20010904//EN"
 "http://www.w3.org/TR/2001/REC-SVG-20010904/DTD/svg10.dtd">
<svg version="1.0" xmlns="http://www.w3.org/2000/svg"
 width="1500.000000pt" height="1500.000000pt" viewBox="0 0 1500.000000 1500.000000"
 preserveAspectRatio="xMidYMid meet">

<g transform="translate(0.000000,1500.000000) scale(0.100000,-0.100000)"
fill="#000000" stroke="none">
<path d="M7355 11646 c-38 -34 -263 -224 -500 -420 -236 -197 -441 -368 -455
-380 -14 -11 -117 -97 -230 -190 -113 -94 -257 -213 -320 -265 -137 -113 -197
-162 -435 -358 -99 -81 -256 -210 -350 -288 -292 -241 -527 -433 -920 -752
-596 -484 -595 -483 -595 -493 0 -4 46 -10 103 -14 56 -3 161 -11 234 -18
l132 -11 38 25 c21 14 122 98 224 185 103 88 217 183 254 212 37 29 210 175
384 325 174 149 357 305 406 347 290 243 476 397 595 494 74 60 274 227 444
370 500 421 574 482 720 592 151 114 229 157 288 158 32 0 38 3 38 21 0 28 30
54 62 54 15 0 59 -22 100 -49 117 -80 641 -523 1027 -870 64 -57 166 -145 226
-196 61 -50 151 -127 201 -171 50 -43 162 -141 250 -216 87 -76 202 -176 254
-223 52 -47 172 -151 265 -232 287 -248 486 -424 573 -505 45 -42 137 -122
205 -178 67 -55 145 -121 173 -145 l51 -43 119 9 c65 6 141 16 168 24 27 8 63
15 80 15 17 0 38 5 46 10 19 12 27 4 -244 236 -278 239 -306 263 -631 533
-154 128 -376 315 -494 415 -117 99 -270 228 -340 286 -70 58 -161 134 -202
169 -41 35 -85 73 -99 85 -176 148 -361 309 -735 636 -268 235 -322 280 -516
440 -57 47 -149 125 -203 175 -180 164 -299 265 -310 265 -6 0 -42 -29 -81
-64z"/>
<path d="M4730 11131 c0 -290 -18 -899 -36 -1190 -8 -144 -13 -266 -10 -268 3
-3 29 14 58 39 29 24 148 120 263 213 211 170 433 351 448 365 4 4 -1 22 -11
41 -17 30 -20 55 -20 209 -1 96 3 204 9 240 9 64 30 482 24 488 -2 2 -36 12
-77 23 -63 17 -114 20 -360 23 l-288 3 0 -186z"/>
<path d="M7404 11133 c-30 -94 -211 -277 -574 -583 -398 -335 -645 -545 -770
-655 -190 -167 -618 -529 -1115 -945 -469 -391 -683 -573 -745 -635 -32 -32
-74 -62 -96 -70 l-39 -13 -9 -234 c-7 -188 -5 -269 8 -418 40 -452 54 -1328
32 -1960 -3 -107 -8 -485 -10 -839 -4 -516 -2 -668 10 -765 7 -67 14 -151 14
-188 0 -37 5 -89 11 -116 13 -62 14 -62 237 -67 l162 -4 0 37 c-3 299 28 2753
40 3170 10 370 10 370 77 398 19 9 43 12 52 9 9 -4 302 -6 651 -6 562 2 868
-6 948 -25 13 -2 46 -25 72 -50 41 -38 51 -55 59 -97 5 -29 15 -338 21 -687 6
-349 15 -790 20 -980 5 -190 9 -637 9 -995 1 -357 4 -660 7 -671 4 -17 18 -24
67 -32 34 -7 87 -19 117 -28 63 -19 104 -20 525 -3 160 6 661 12 1115 14 498
2 877 7 955 14 259 22 691 25 920 6 212 -17 528 -14 566 6 14 7 17 58 23 436
4 235 14 542 22 681 12 200 13 272 4 338 -11 84 -7 618 6 854 4 67 0 156 -10
245 -31 282 -36 377 -37 710 0 187 -1 428 -2 535 -3 287 11 587 29 634 16 41
9 55 -26 56 -8 0 -44 14 -79 30 -49 23 -94 59 -181 143 -63 62 -158 148 -209
192 -166 141 -380 331 -541 481 -47 43 -168 151 -269 239 -213 185 -330 291
-640 575 -123 113 -262 239 -310 280 -118 101 -407 359 -501 445 -136 126
-353 328 -450 420 -52 50 -110 101 -128 113 -30 21 -33 22 -38 5z m651 -817
c18 -13 18 -14 -5 -26 -23 -12 -23 -13 -5 -26 10 -8 28 -14 39 -15 12 0 48
-15 81 -32 89 -47 91 -55 110 -352 8 -137 22 -360 31 -495 30 -491 32 -659 9
-1000 -7 -108 -30 -192 -60 -220 -35 -33 -114 -40 -414 -38 -157 1 -356 -1
-442 -5 -87 -4 -170 -2 -188 3 -36 10 -323 13 -417 4 -58 -6 -63 -5 -97 26
-20 17 -40 46 -45 63 -4 18 -5 235 -1 482 5 261 4 464 -1 483 -6 21 -5 44 1
60 7 17 11 187 10 465 0 378 -2 440 -16 459 -35 51 -6 111 62 125 41 9 364 10
708 3 116 -3 282 -2 370 2 135 5 166 10 200 27 47 25 46 25 70 7z m2303 -3087
c29 -5 67 -18 84 -30 57 -41 59 -55 57 -444 0 -308 1 -357 15 -377 20 -28 20
-57 2 -77 -12 -13 -16 -149 -26 -816 -7 -510 -15 -813 -22 -835 -15 -51 -31
-65 -99 -85 -59 -18 -106 -18 -1327 -6 -697 7 -1328 16 -1402 21 -202 12 -284
39 -311 103 -13 30 -7 160 11 271 6 36 14 463 19 1031 l8 970 -23 37 c-53 83
-31 180 51 222 39 21 55 21 1110 26 1216 6 1776 2 1853 -11z"/>
<path d="M6845 10099 c-6 -8 14 -416 25 -539 6 -58 10 -136 10 -174 l0 -68 29
7 c20 4 30 2 34 -8 4 -11 41 -14 189 -13 l183 1 7 60 c4 33 9 186 12 340 3
154 8 296 12 315 4 28 3 33 -7 23 -19 -19 -29 -16 -29 11 0 23 -1 23 -152 30
-84 4 -188 10 -231 14 -44 4 -80 4 -82 1z"/>
<path d="M7526 10023 c-9 -58 -7 -200 5 -314 6 -57 11 -174 12 -259 l2 -155
75 -6 c41 -4 149 -8 240 -9 l165 -3 3 372 2 371 -53 0 c-30 0 -89 9 -132 20
-56 14 -111 20 -195 20 l-117 0 -7 -37z"/>
<path d="M6894 8758 c3 -200 8 -380 12 -400 l6 -38 128 0 c70 0 168 3 219 7
l92 6 -6 186 c-4 102 -13 211 -21 242 -8 34 -14 109 -14 187 0 109 -3 131 -16
136 -9 3 -55 6 -102 6 -48 0 -130 7 -182 15 -52 8 -101 15 -109 15 -11 0 -12
-60 -7 -362z"/>
<path d="M7540 8993 c0 -74 13 -178 27 -213 3 -8 5 -71 5 -140 -1 -69 2 -163
6 -210 l7 -85 105 -1 c58 -1 130 -5 160 -9 30 -3 80 -2 110 2 l55 8 7 140 c12
239 13 266 10 422 l-2 152 -57 -1 c-32 -1 -142 2 -245 7 l-188 8 0 -80z"/>
<path d="M9770 6960 l-195 -5 1 -45 c1 -25 5 -147 9 -272 l8 -228 328 0 c184
0 330 4 333 9 3 5 3 131 -1 280 l-6 271 -141 -2 c-78 -1 -229 -5 -336 -8z"/>
<path d="M8887 6950 c-226 -4 -411 -11 -415 -16 -5 -5 -5 -54 -1 -109 4 -55 7
-178 8 -274 l1 -174 268 8 c463 12 637 20 648 27 8 5 12 66 13 185 1 98 4 220
7 271 l7 92 -64 -2 c-35 -1 -248 -4 -472 -8z"/>
<path d="M7682 6933 l-173 -3 7 -288 c4 -158 7 -287 8 -288 6 -4 763 20 768
25 8 7 28 541 21 554 -4 7 -226 7 -631 0z"/>
<path d="M7520 5910 c0 -349 1 -355 31 -352 3 1 169 5 369 11 199 6 364 12
365 13 2 2 4 154 6 338 l4 335 -387 3 -388 2 0 -350z"/>
<path d="M8488 6254 c-3 -5 -3 -159 0 -342 l5 -333 446 3 446 3 6 325 c3 179
3 328 0 332 -9 10 -897 22 -903 12z"/>
<path d="M9820 6250 l-225 -5 3 -324 c1 -179 4 -327 7 -329 6 -7 437 -3 554 4
l103 7 -6 326 c-3 179 -5 327 -6 329 0 2 -47 1 -430 -8z"/>
<path d="M7527 5454 c-4 -4 -5 -109 -1 -233 5 -218 17 -358 32 -373 4 -4 165
-8 357 -9 l350 -2 6 99 c3 55 8 189 10 299 l4 200 -265 6 c-146 4 -315 10
-375 13 -61 4 -114 4 -118 0z"/>
<path d="M8495 5138 c4 -167 10 -306 14 -309 7 -8 564 -29 742 -29 l126 0 6
107 c4 58 7 202 7 320 l0 213 -451 0 -451 0 7 -302z"/>
<path d="M9594 5425 c-7 -18 0 -623 8 -630 4 -4 435 -26 573 -28 l90 -2 -3
329 c-1 181 -5 332 -7 335 -3 3 -152 7 -330 9 -301 4 -325 3 -331 -13z"/>
<path d="M4777 6704 c-21 -1369 -45 -2431 -63 -2900 l-7 -161 44 -6 c99 -15
595 -19 714 -7 66 7 190 16 275 20 199 10 421 38 439 56 3 3 7 303 8 667 1
364 6 847 12 1072 6 226 15 565 20 755 6 190 11 444 12 565 l3 220 -232 7
c-127 3 -287 11 -354 17 -68 6 -177 13 -243 16 -135 7 -481 32 -566 41 l-56 6
-6 -368z m1077 -5 c52 -18 81 -58 80 -112 0 -155 -17 -528 -26 -554 -19 -65
-42 -73 -212 -73 -83 0 -196 5 -251 11 -55 5 -145 13 -200 18 -107 8 -138 19
-156 54 -8 14 -14 112 -17 293 -5 303 -1 332 52 365 30 20 45 20 361 16 245
-3 340 -8 369 -18z"/>
<path d="M5228 6339 c2 -101 7 -187 10 -190 4 -3 116 -4 248 -1 l241 4 7 61
c3 33 6 113 6 178 l0 119 -183 0 c-101 0 -217 3 -258 6 l-74 7 3 -184z"/>
</g>
</svg>
